<svg width="2175" height="1579" xmlns="http://www.w3.org/2000/svg" xmlns:xlink="http://www.w3.org/1999/xlink" xml:space="preserve" overflow="hidden"><defs><clipPath id="clip0"><rect x="1235" y="719" width="2175" height="1579"/></clipPath></defs><g clip-path="url(#clip0)" transform="translate(-1235 -719)"><rect x="1235" y="719" width="2175" height="1579" fill="#FFFFFF"/><g><rect x="1421" y="1009" width="1694" height="1093" fill="#FFFFFF"/></g><g><rect x="1421.5" y="1009.5" width="1693" height="1092" stroke="#000000" stroke-width="4.58333" stroke-linejoin="round" stroke-miterlimit="10" fill="none"/></g><g><path d="M3114.5 1009.5 3114.5 2101.5" stroke="#000000" stroke-width="1.14583" stroke-linejoin="round" stroke-miterlimit="10" fill="none" fill-rule="evenodd"/></g><g><path d="M3114.5 1009.5 3125.5 1009.5M3114.5 1165.54 3125.5 1165.54M3114.5 1321.54 3125.5 1321.54M3114.5 1477.55 3125.5 1477.55M3114.5 1633.55 3125.5 1633.55M3114.5 1789.56 3125.5 1789.56M3114.5 1945.56 3125.5 1945.56M3114.5 2101.5 3125.5 2101.5" stroke="#000000" stroke-width="1.14583" stroke-linejoin="round" stroke-miterlimit="10" fill="none"/></g><g><path d="M0 0 1693 0.000360892" stroke="#000000" stroke-width="1.14583" stroke-linejoin="round" stroke-miterlimit="10" fill="none" fill-rule="evenodd" transform="matrix(-1 0 0 1 3114.5 1009.5)"/></g><g><path d="M3114.5 997.5 3114.5 1009.5M2902.6 997.5 2902.6 1009.5M2691.59 997.5 2691.59 1009.5M2479.58 997.5 2479.58 1009.5M2267.57 997.5 2267.57 1009.5M2056.57 997.5 2056.57 1009.5M1844.56 997.5 1844.56 1009.5M1632.55 997.5 1632.55 1009.5M1421.5 997.5 1421.5 1009.5" stroke="#000000" stroke-width="1.14583" stroke-linejoin="round" stroke-miterlimit="10" fill="none"/></g><g><path d="M2211.86 1918.7 2224.86 1931.7 2211.86 1944.7 2198.86 1931.7Z" fill="#FF0000"/><path d="M1997.86 1518.7 2010.86 1531.7 1997.86 1544.7 1984.86 1531.7Z" fill="#FF0000"/><path d="M1831.86 1283.7 1844.86 1296.7 1831.86 1309.7 1818.86 1296.7Z" fill="#FF0000"/><path d="M2762.86 1635.7 2775.86 1648.7 2762.86 1661.7 2749.86 1648.7Z" fill="#FF0000"/><path d="M2803.86 1299.7 2816.86 1312.7 2803.86 1325.7 2790.86 1312.7Z" fill="#FF0000"/></g><g><path d="M2606.86 1590.7 2633.86 1590.7 2633.86 1617.7 2606.86 1617.7Z" stroke="#ED7D31" stroke-width="2.29167" stroke-linejoin="round" stroke-miterlimit="10" fill="#ED7D31"/><path d="M2118.86 1424.7 2145.86 1424.7 2145.86 1451.7 2118.86 1451.7Z" stroke="#ED7D31" stroke-width="2.29167" stroke-linejoin="round" stroke-miterlimit="10" fill="#ED7D31"/><path d="M1875.86 1162.7 1902.86 1162.7 1902.86 1189.7 1875.86 1189.7Z" stroke="#ED7D31" stroke-width="2.29167" stroke-linejoin="round" stroke-miterlimit="10" fill="#ED7D31"/><path d="M2610.86 1512.7 2637.86 1512.7 2637.86 1539.7 2610.86 1539.7Z" stroke="#ED7D31" stroke-width="2.29167" stroke-linejoin="round" stroke-miterlimit="10" fill="#ED7D31"/><path d="M2839.86 1303.7 2866.86 1303.7 2866.86 1330.7 2839.86 1330.7Z" stroke="#ED7D31" stroke-width="2.29167" stroke-linejoin="round" stroke-miterlimit="10" fill="#ED7D31"/></g><g><path d="M2289.86 1734.7 2302.86 1760.7 2276.86 1760.7Z" fill="#0070C0"/><path d="M1791.86 1168.7 1804.86 1194.7 1778.86 1194.7Z" fill="#0070C0"/><path d="M2103.86 1375.7 2116.86 1401.7 2090.86 1401.7Z" fill="#0070C0"/><path d="M2245.86 1547.7 2258.86 1573.7 2232.86 1573.7Z" fill="#0070C0"/><path d="M2742.86 1647.7 2755.86 1673.7 2729.86 1673.7Z" fill="#0070C0"/><path d="M2854.86 1376.7 2867.86 1402.7 2841.86 1402.7Z" fill="#0070C0"/><path d="M2874.86 1567.7 2887.86 1593.7 2861.86 1593.7Z" fill="#0070C0"/><path d="M2890.86 1675.7 2903.86 1701.7 2877.86 1701.7Z" fill="#0070C0"/><path d="M2609.86 1168.7 2622.86 1194.7 2596.86 1194.7Z" fill="#0070C0"/><path d="M2455.86 1441.7 2468.86 1467.7 2442.86 1467.7Z" fill="#0070C0"/></g><g><path d="M2409.86 1608.2C2409.86 1615.66 2403.81 1621.7 2396.36 1621.7 2388.9 1621.7 2382.86 1615.66 2382.86 1608.2 2382.86 1600.75 2388.9 1594.7 2396.36 1594.7 2403.81 1594.7 2409.86 1600.75 2409.86 1608.2Z" fill="#FFC000"/><path d="M2086.86 1293.2C2086.86 1300.66 2080.81 1306.7 2073.36 1306.7 2065.9 1306.7 2059.86 1300.66 2059.86 1293.2 2059.86 1285.75 2065.9 1279.7 2073.36 1279.7 2080.81 1279.7 2086.86 1285.75 2086.86 1293.2Z" fill="#FFC000"/><path d="M2087.86 1161.2C2087.86 1168.66 2081.81 1174.7 2074.36 1174.7 2066.9 1174.7 2060.86 1168.66 2060.86 1161.2 2060.86 1153.75 2066.9 1147.7 2074.36 1147.7 2081.81 1147.7 2087.86 1153.75 2087.86 1161.2Z" fill="#FFC000"/><path d="M2707.86 1409.2C2707.86 1416.66 2701.81 1422.7 2694.36 1422.7 2686.9 1422.7 2680.86 1416.66 2680.86 1409.2 2680.86 1401.75 2686.9 1395.7 2694.36 1395.7 2701.81 1395.7 2707.86 1401.75 2707.86 1409.2Z" fill="#FFC000"/><path d="M2968.86 1232.2C2968.86 1239.66 2962.81 1245.7 2955.36 1245.7 2947.9 1245.7 2941.86 1239.66 2941.86 1232.2 2941.86 1224.75 2947.9 1218.7 2955.36 1218.7 2962.81 1218.7 2968.86 1224.75 2968.86 1232.2Z" fill="#FFC000"/></g><g><g><text font-family="Arial,Arial_MSFontService,sans-serif" font-weight="400" font-size="37" transform="matrix(1 0 0 1 2201.81 1889)">a</text></g></g><g><g><text font-family="Arial,Arial_MSFontService,sans-serif" font-weight="400" font-size="37" transform="matrix(1 0 0 1 1988.19 1489)">e</text></g></g><g><g><text font-family="Arial,Arial_MSFontService,sans-serif" font-weight="400" font-size="37" transform="matrix(1 0 0 1 1828.01 1254)">i</text></g></g><g><g><text font-family="Arial,Arial_MSFontService,sans-serif" font-weight="400" font-size="37" transform="matrix(1 0 0 1 2752.93 1606)">o</text></g></g><g><g><text font-family="Arial,Arial_MSFontService,sans-serif" font-weight="400" font-size="37" transform="matrix(1 0 0 1 2793.5 1270)">u</text></g></g><g><g><text font-family="Arial,Arial_MSFontService,sans-serif" font-weight="400" font-size="37" transform="matrix(1 0 0 1 2610.31 1562)">a</text></g></g><g><g><text font-family="Arial,Arial_MSFontService,sans-serif" font-weight="400" font-size="37" transform="matrix(1 0 0 1 2122.52 1396)">e</text></g></g><g><g><text font-family="Arial,Arial_MSFontService,sans-serif" font-weight="400" font-size="37" transform="matrix(1 0 0 1 1885.84 1134)">i</text></g></g><g><g><text font-family="Arial,Arial_MSFontService,sans-serif" font-weight="400" font-size="37" transform="matrix(1 0 0 1 2614.71 1484)">o</text></g></g><g><g><text font-family="Arial,Arial_MSFontService,sans-serif" font-weight="400" font-size="37" transform="matrix(1 0 0 1 2843.89 1275)">u</text></g></g><g><g><text font-family="Arial,Arial_MSFontService,sans-serif" font-weight="400" font-size="37" transform="matrix(1 0 0 1 2274.19 1705)">æ</text></g></g><g><g><text font-family="Arial,Arial_MSFontService,sans-serif" font-weight="400" font-size="37" transform="matrix(1 0 0 1 1787.71 1139)">i</text></g></g><g><g><text font-family="Arial,Arial_MSFontService,sans-serif" font-weight="400" font-size="37" transform="matrix(1 0 0 1 2097.14 1346)">ɪ</text></g></g><g><g><text font-family="Arial,Arial_MSFontService,sans-serif" font-weight="400" font-size="37" transform="matrix(1 0 0 1 2237.36 1518)">ɛ</text></g></g><g><g><text font-family="Arial,Arial_MSFontService,sans-serif" font-weight="400" font-size="37" transform="matrix(1 0 0 1 2733.49 1619)">ʌ</text></g></g><g><g><text font-family="Arial,Arial_MSFontService,sans-serif" font-weight="400" font-size="37" transform="matrix(1 0 0 1 2844.44 1348)">ʊ</text></g></g><g><g><text font-family="Arial,Arial_MSFontService,sans-serif" font-weight="400" font-size="37" transform="matrix(1 0 0 1 2866.09 1538)">ɔ</text></g></g><g><g><text font-family="Arial,Arial_MSFontService,sans-serif" font-weight="400" font-size="37" transform="matrix(1 0 0 1 2880.79 1647)">ɑ</text></g></g><g><g><text font-family="Arial,Arial_MSFontService,sans-serif" font-weight="400" font-size="37" transform="matrix(1 0 0 1 2600.28 1139)">u</text></g></g><g><g><text font-family="Arial,Arial_MSFontService,sans-serif" font-weight="400" font-size="37" transform="matrix(1 0 0 1 2445.38 1412)">ə</text></g></g><g><text font-family="Arial,Arial_MSFontService,sans-serif" font-weight="400" font-size="37" transform="matrix(1 0 0 1 2386.32 1567)">a</text></g><g><text font-family="Arial,Arial_MSFontService,sans-serif" font-weight="400" font-size="37" transform="matrix(1 0 0 1 2063.49 1252)">e</text></g><g><text font-family="Arial,Arial_MSFontService,sans-serif" font-weight="400" font-size="37" transform="matrix(1 0 0 1 2070.46 1119)">i</text></g><g><text font-family="Arial,Arial_MSFontService,sans-serif" font-weight="400" font-size="37" transform="matrix(1 0 0 1 2684.91 1368)">o</text></g><g><text font-family="Arial,Arial_MSFontService,sans-serif" font-weight="400" font-size="37" transform="matrix(1 0 0 1 2945.83 1191)">u</text></g><g><text font-family="Arial,Arial_MSFontService,sans-serif" font-weight="400" font-size="37" transform="matrix(1 0 0 1 3146.1 1020)">2</text></g><g><text font-family="Arial,Arial_MSFontService,sans-serif" font-weight="400" font-size="37" transform="matrix(1 0 0 1 3146.1 1177)">3</text></g><g><text font-family="Arial,Arial_MSFontService,sans-serif" font-weight="400" font-size="37" transform="matrix(1 0 0 1 3146.1 1333)">4</text></g><g><text font-family="Arial,Arial_MSFontService,sans-serif" font-weight="400" font-size="37" transform="matrix(1 0 0 1 3146.1 1489)">5</text></g><g><text font-family="Arial,Arial_MSFontService,sans-serif" font-weight="400" font-size="37" transform="matrix(1 0 0 1 3146.1 1645)">6</text></g><g><text font-family="Arial,Arial_MSFontService,sans-serif" font-weight="400" font-size="37" transform="matrix(1 0 0 1 3146.1 1801)">7</text></g><g><text font-family="Arial,Arial_MSFontService,sans-serif" font-weight="400" font-size="37" transform="matrix(1 0 0 1 3146.1 1957)">8</text></g><g><text font-family="Arial,Arial_MSFontService,sans-serif" font-weight="400" font-size="37" transform="matrix(1 0 0 1 3146.1 2113)">9</text></g><g><text font-family="Arial,Arial_MSFontService,sans-serif" font-weight="400" font-size="37" transform="matrix(1 0 0 1 3104.37 977)">8</text></g><g><text font-family="Arial,Arial_MSFontService,sans-serif" font-weight="400" font-size="37" transform="matrix(1 0 0 1 2892.68 977)">9</text></g><g><text font-family="Arial,Arial_MSFontService,sans-serif" font-weight="400" font-size="37" transform="matrix(1 0 0 1 2670.79 977)">10</text></g><g><text font-family="Arial,Arial_MSFontService,sans-serif" font-weight="400" font-size="37" transform="matrix(1 0 0 1 2459.09 977)">11</text></g><g><text font-family="Arial,Arial_MSFontService,sans-serif" font-weight="400" font-size="37" transform="matrix(1 0 0 1 2247.4 977)">12</text></g><g><text font-family="Arial,Arial_MSFontService,sans-serif" font-weight="400" font-size="37" transform="matrix(1 0 0 1 2035.7 977)">13</text></g><g><text font-family="Arial,Arial_MSFontService,sans-serif" font-weight="400" font-size="37" transform="matrix(1 0 0 1 1824.01 977)">14</text></g><g><text font-family="Arial,Arial_MSFontService,sans-serif" font-weight="400" font-size="37" transform="matrix(1 0 0 1 1612.32 977)">15</text></g><g><text font-family="Arial,Arial_MSFontService,sans-serif" font-weight="400" font-size="37" transform="matrix(1 0 0 1 1400.62 977)">16</text></g><g><text font-family="Arial,Arial_MSFontService,sans-serif" font-weight="400" font-size="37" transform="matrix(6.12323e-17 -1 1 6.12323e-17 3232.59 2095)">F1 (Bark)</text></g><g><text font-family="Arial,Arial_MSFontService,sans-serif" font-weight="400" font-size="37" transform="matrix(1 0 0 1 1414.82 916)">F2 (Bark)</text></g><g><text font-family="Arial,Arial_MSFontService,sans-serif" font-weight="400" font-size="64" transform="matrix(1 0 0 1 1611.39 813)">Native and Non</text></g><g><text font-family="Arial,Arial_MSFontService,sans-serif" font-weight="400" font-size="64" transform="matrix(1 0 0 1 2053.65 813)">-</text></g><g><text font-family="Arial,Arial_MSFontService,sans-serif" font-weight="400" font-size="64" transform="matrix(1 0 0 1 2075.01 813)">native Vowels Comparison between </text></g><g><text font-family="Arial,Arial_MSFontService,sans-serif" font-weight="400" font-size="64" transform="matrix(1 0 0 1 2058.93 887)">Spanish and English</text></g><g><path d="M1857 2145 1866 2154 1857 2163 1848 2154Z" fill="#FF0000"/></g><g><text font-family="Arial,Arial_MSFontService,sans-serif" font-weight="400" font-size="37" transform="matrix(1 0 0 1 1874.44 2166)">Female Native Spanish Speaker Vowels</text></g><g><path d="M1848 2188 1866 2188 1866 2206 1848 2206Z" stroke="#ED7D31" stroke-width="2.29167" stroke-linejoin="round" stroke-miterlimit="10" fill="#ED7D31"/></g><g><text font-family="Arial,Arial_MSFontService,sans-serif" font-weight="400" font-size="37" transform="matrix(1 0 0 1 1874.44 2209)">My Non-native Spanish Vowels</text></g><g><path d="M1857 2231 1866 2249 1848 2249Z" fill="#0070C0"/></g><g><text font-family="Arial,Arial_MSFontService,sans-serif" font-weight="400" font-size="37" transform="matrix(1 0 0 1 1874.44 2252)">My Native English Vowels</text></g></g></svg>